<?xml version="1.0" encoding="UTF-8"?>
<svg xmlns="http://www.w3.org/2000/svg" xmlns:xlink="http://www.w3.org/1999/xlink" width="500px" height="500px" viewBox="0 0 500 500" version="1.1">
<g id="surface1">
<path style=" stroke:none;fill-rule:nonzero;fill:rgb(100%,100%,100%);fill-opacity:1;" d="M 416.667969 181.042969 L 416.667969 83.332031 L 318.957031 83.332031 L 250 14.375 L 181.042969 83.332031 L 83.332031 83.332031 L 83.332031 181.042969 L 14.375 250 L 83.332031 318.957031 L 83.332031 416.667969 L 181.042969 416.667969 L 250 485.625 L 318.957031 416.667969 L 416.667969 416.667969 L 416.667969 318.957031 L 485.625 250 Z M 250 375 C 181.042969 375 125 318.957031 125 250 C 125 181.042969 181.042969 125 250 125 C 318.957031 125 375 181.042969 375 250 C 375 318.957031 318.957031 375 250 375 Z M 250 166.667969 C 203.957031 166.667969 166.667969 203.957031 166.667969 250 C 166.667969 296.042969 203.957031 333.332031 250 333.332031 C 296.042969 333.332031 333.332031 296.042969 333.332031 250 C 333.332031 203.957031 296.042969 166.667969 250 166.667969 Z M 250 166.667969 "/>
</g>
</svg>
