<?xml version="1.0" encoding="UTF-8"?>
<svg xmlns="http://www.w3.org/2000/svg" xmlns:xlink="http://www.w3.org/1999/xlink" width="500px" height="500px" viewBox="0 0 500 500" version="1.1">
<g id="surface1">
<path style=" stroke:none;fill-rule:nonzero;fill:rgb(100%,100%,100%);fill-opacity:1;" d="M 62.5 187.5 L 62.5 312.5 L 145.832031 312.5 L 250 416.667969 L 250 83.332031 L 145.832031 187.5 Z M 343.75 250 C 343.75 213.125 322.5 181.457031 291.667969 166.042969 L 291.667969 333.75 C 322.5 318.542969 343.75 286.875 343.75 250 Z M 291.667969 67.292969 L 291.667969 110.207031 C 351.875 128.125 395.832031 183.957031 395.832031 250 C 395.832031 316.042969 351.875 371.875 291.667969 389.792969 L 291.667969 432.707031 C 375.207031 413.75 437.5 339.167969 437.5 250 C 437.5 160.832031 375.207031 86.25 291.667969 67.292969 Z M 291.667969 67.292969 "/>
</g>
</svg>
