<?xml version="1.0" encoding="UTF-8"?>
<svg xmlns="http://www.w3.org/2000/svg" xmlns:xlink="http://www.w3.org/1999/xlink" width="500px" height="500px" viewBox="0 0 500 500" version="1.1">
<g id="surface1">
<path style=" stroke:none;fill-rule:nonzero;fill:rgb(100%,100%,100%);fill-opacity:1;" d="M 343.75 250 C 343.75 213.125 322.5 181.457031 291.667969 166.042969 L 291.667969 212.082031 L 342.707031 263.125 C 343.332031 258.957031 343.75 254.582031 343.75 250 Z M 395.832031 250 C 395.832031 269.582031 391.667969 287.917969 384.582031 305 L 416.042969 336.457031 C 429.792969 310.625 437.5 281.25 437.5 250 C 437.5 160.832031 375.207031 86.25 291.667969 67.292969 L 291.667969 110.207031 C 351.875 128.125 395.832031 183.957031 395.832031 250 Z M 88.957031 62.5 L 62.5 88.957031 L 161.042969 187.5 L 62.5 187.5 L 62.5 312.5 L 145.832031 312.5 L 250 416.667969 L 250 276.457031 L 338.542969 365 C 324.582031 375.832031 308.957031 384.375 291.667969 389.582031 L 291.667969 432.5 C 320.417969 426.042969 346.457031 412.707031 368.542969 394.792969 L 411.042969 437.5 L 437.5 411.042969 Z M 250 83.332031 L 206.457031 126.875 L 250 170.417969 Z M 250 83.332031 "/>
</g>
</svg>
