<?xml version="1.0" encoding="UTF-8"?>
<svg xmlns="http://www.w3.org/2000/svg" xmlns:xlink="http://www.w3.org/1999/xlink" width="500px" height="500px" viewBox="0 0 500 500" version="1.1">
<g id="surface1">
<path style=" stroke:none;fill-rule:nonzero;fill:rgb(100%,100%,100%);fill-opacity:1;" d="M 250 156.25 C 198.339844 156.25 156.25 198.339844 156.25 250 C 156.25 301.660156 198.339844 343.75 250 343.75 C 301.660156 343.75 343.75 301.660156 343.75 250 C 343.75 198.339844 301.660156 156.25 250 156.25 Z M 490.625 234.863281 L 398.144531 188.671875 L 430.859375 90.625 C 435.253906 77.34375 422.65625 64.746094 409.472656 69.238281 L 311.425781 101.953125 L 265.136719 9.375 C 258.886719 -3.125 241.113281 -3.125 234.863281 9.375 L 188.671875 101.855469 L 90.527344 69.140625 C 77.246094 64.746094 64.648438 77.34375 69.140625 90.527344 L 101.855469 188.574219 L 9.375 234.863281 C -3.125 241.113281 -3.125 258.886719 9.375 265.136719 L 101.855469 311.328125 L 69.140625 409.472656 C 64.746094 422.753906 77.34375 435.351562 90.527344 430.859375 L 188.574219 398.144531 L 234.765625 490.625 C 241.015625 503.125 258.789062 503.125 265.039062 490.625 L 311.230469 398.144531 L 409.277344 430.859375 C 422.558594 435.253906 435.15625 422.65625 430.664062 409.472656 L 397.949219 311.425781 L 490.429688 265.234375 C 503.125 258.886719 503.125 241.113281 490.625 234.863281 Z M 338.378906 338.378906 C 289.648438 387.109375 210.351562 387.109375 161.621094 338.378906 C 112.890625 289.648438 112.890625 210.351562 161.621094 161.621094 C 210.351562 112.890625 289.648438 112.890625 338.378906 161.621094 C 387.109375 210.351562 387.109375 289.648438 338.378906 338.378906 Z M 338.378906 338.378906 "/>
</g>
</svg>
