<?xml version="1.0" encoding="UTF-8"?>
<svg xmlns="http://www.w3.org/2000/svg" xmlns:xlink="http://www.w3.org/1999/xlink" width="375px" height="500px" viewBox="0 0 375 500" version="1.1">
<g id="surface1">
<path style=" stroke:none;fill-rule:nonzero;fill:rgb(100%,100%,100%);fill-opacity:1;" d="M 209.992188 70.351562 L 123.105469 157.226562 L 23.4375 157.226562 C 10.488281 157.226562 0 167.714844 0 180.664062 L 0 321.289062 C 0 334.226562 10.488281 344.726562 23.4375 344.726562 L 123.105469 344.726562 L 209.992188 431.59375 C 224.667969 446.269531 250 435.957031 250 415.019531 L 250 86.933594 C 250 65.96875 224.648438 55.703125 209.992188 70.351562 Z M 330.304688 175.898438 C 318.996094 169.71875 304.726562 173.789062 298.457031 185.125 C 292.21875 196.464844 296.347656 210.710938 307.6875 216.972656 C 320.292969 223.90625 328.125 236.933594 328.125 250.976562 C 328.125 265.019531 320.292969 278.046875 307.695312 284.96875 C 296.355469 291.230469 292.226562 305.476562 298.46875 316.816406 C 304.746094 328.203125 319.023438 332.246094 330.3125 326.046875 C 357.882812 310.859375 375.007812 282.101562 375.007812 250.96875 C 375.007812 219.835938 357.878906 191.085938 330.304688 175.898438 Z M 330.304688 175.898438 "/>
</g>
</svg>
