<?xml version="1.0" encoding="UTF-8"?>
<svg xmlns="http://www.w3.org/2000/svg" xmlns:xlink="http://www.w3.org/1999/xlink" width="562px" height="500px" viewBox="0 0 562 500" version="1.1">
<g id="surface1">
<path style=" stroke:none;fill-rule:nonzero;fill:rgb(0%,0%,0%);fill-opacity:1;" d="M 209.804688 69.382812 L 122.996094 156.25 L 23.417969 156.25 C 10.480469 156.25 0 166.738281 0 179.6875 L 0 320.3125 C 0 333.25 10.480469 343.75 23.417969 343.75 L 122.996094 343.75 L 209.804688 430.617188 C 224.46875 445.292969 249.777344 434.980469 249.777344 414.042969 L 249.777344 85.957031 C 249.777344 65 224.449219 54.726562 209.804688 69.382812 Z M 437.453125 19.5 C 426.554688 12.34375 411.910156 15.359375 404.757812 26.289062 C 397.59375 37.195312 400.640625 51.855469 411.539062 59.011719 C 476.199219 101.484375 514.785156 172.878906 514.785156 250.007812 C 514.785156 327.140625 476.199219 398.535156 411.539062 441.007812 C 400.640625 448.15625 397.59375 462.820312 404.757812 473.722656 C 411.625 484.179688 426.152344 487.941406 437.453125 480.507812 C 515.429688 429.277344 562 343.09375 562 250 C 562 156.90625 515.429688 70.734375 437.453125 19.5 Z M 468.332031 250 C 468.332031 187.960938 437.050781 130.917969 384.648438 97.421875 C 373.730469 90.449219 359.25 93.691406 352.332031 104.707031 C 345.414062 115.722656 348.644531 130.304688 359.5625 137.285156 C 398.347656 162.078125 421.5 204.207031 421.5 250 C 421.5 295.789062 398.347656 337.921875 359.5625 362.714844 C 348.644531 369.6875 345.414062 384.265625 352.332031 395.292969 C 358.683594 405.410156 372.941406 410.078125 384.648438 402.578125 C 437.050781 369.082031 468.332031 312.050781 468.332031 250 Z M 330.007812 174.929688 C 318.710938 168.75 304.457031 172.820312 298.191406 184.160156 C 291.957031 195.5 296.085938 209.746094 307.410156 216.007812 C 320.007812 222.929688 327.832031 235.96875 327.832031 250 C 327.832031 264.042969 320.007812 277.070312 307.421875 283.992188 C 296.09375 290.253906 291.96875 304.5 298.203125 315.839844 C 304.476562 327.226562 318.738281 331.269531 330.019531 325.070312 C 357.5625 309.882812 374.675781 281.125 374.675781 249.992188 C 374.675781 218.859375 357.5625 190.109375 330.007812 174.929688 Z M 330.007812 174.929688 "/>
</g>
</svg>
