<?xml version="1.0" encoding="UTF-8"?>
<svg xmlns="http://www.w3.org/2000/svg" xmlns:xlink="http://www.w3.org/1999/xlink" width="500px" height="500px" viewBox="0 0 500 500" version="1.1">
<g id="surface1">
<path style=" stroke:none;fill-rule:nonzero;fill:rgb(0%,0%,0%);fill-opacity:1;" d="M 209.992188 69.382812 L 123.105469 156.25 L 23.4375 156.25 C 10.488281 156.25 0 166.738281 0 179.6875 L 0 320.3125 C 0 333.25 10.488281 343.75 23.4375 343.75 L 123.105469 343.75 L 209.992188 430.617188 C 224.667969 445.292969 250 434.980469 250 414.042969 L 250 85.957031 C 250 65 224.648438 54.726562 209.992188 69.382812 Z M 450.820312 250 L 495.390625 205.429688 C 501.542969 199.277344 501.542969 189.296875 495.390625 183.144531 L 473.105469 160.859375 C 466.953125 154.707031 456.972656 154.707031 450.820312 160.859375 L 406.25 205.429688 L 361.679688 160.859375 C 355.527344 154.707031 345.546875 154.707031 339.394531 160.859375 L 317.109375 183.144531 C 310.957031 189.296875 310.957031 199.277344 317.109375 205.429688 L 361.679688 250 L 317.117188 294.5625 C 310.96875 300.710938 310.96875 310.695312 317.117188 316.84375 L 339.40625 339.132812 C 345.554688 345.28125 355.539062 345.28125 361.6875 339.132812 L 406.25 294.570312 L 450.820312 339.140625 C 456.972656 345.292969 466.953125 345.292969 473.105469 339.140625 L 495.390625 316.855469 C 501.542969 310.703125 501.542969 300.722656 495.390625 294.570312 Z M 450.820312 250 "/>
</g>
</svg>
